<mxfile host="app.diagrams.net" modified="2023-08-21T10:39:59.421Z" agent="Mozilla/5.0 (X11; Linux x86_64) AppleWebKit/537.36 (KHTML, like Gecko) Chrome/114.0.0.0 Safari/537.36" etag="vy6IbwebeHVUJEKC4ROM" version="21.6.8" type="device">
  <diagram name="Страница — 1" id="QQ1mKQG1acpjYzDgp8fd">
    <mxGraphModel dx="919" dy="572" grid="1" gridSize="10" guides="1" tooltips="1" connect="1" arrows="1" fold="1" page="1" pageScale="1" pageWidth="827" pageHeight="1169" math="0" shadow="0">
      <root>
        <mxCell id="0" />
        <mxCell id="1" parent="0" />
        <mxCell id="kTgBZfeZ7r7713pSdJWn-3" value="" style="edgeStyle=orthogonalEdgeStyle;rounded=0;orthogonalLoop=1;jettySize=auto;html=1;" edge="1" parent="1" source="kTgBZfeZ7r7713pSdJWn-1" target="kTgBZfeZ7r7713pSdJWn-2">
          <mxGeometry relative="1" as="geometry" />
        </mxCell>
        <mxCell id="kTgBZfeZ7r7713pSdJWn-1" value="start" style="rounded=1;whiteSpace=wrap;html=1;" vertex="1" parent="1">
          <mxGeometry x="320" y="10" width="120" height="60" as="geometry" />
        </mxCell>
        <mxCell id="kTgBZfeZ7r7713pSdJWn-16" value="" style="edgeStyle=orthogonalEdgeStyle;rounded=0;orthogonalLoop=1;jettySize=auto;html=1;" edge="1" parent="1" source="kTgBZfeZ7r7713pSdJWn-2" target="kTgBZfeZ7r7713pSdJWn-7">
          <mxGeometry relative="1" as="geometry" />
        </mxCell>
        <mxCell id="kTgBZfeZ7r7713pSdJWn-2" value="lst[int]" style="shape=parallelogram;perimeter=parallelogramPerimeter;whiteSpace=wrap;html=1;fixedSize=1;" vertex="1" parent="1">
          <mxGeometry x="320" y="110" width="120" height="60" as="geometry" />
        </mxCell>
        <mxCell id="kTgBZfeZ7r7713pSdJWn-11" value="" style="edgeStyle=orthogonalEdgeStyle;rounded=0;orthogonalLoop=1;jettySize=auto;html=1;" edge="1" parent="1" source="kTgBZfeZ7r7713pSdJWn-4" target="kTgBZfeZ7r7713pSdJWn-6">
          <mxGeometry relative="1" as="geometry" />
        </mxCell>
        <mxCell id="kTgBZfeZ7r7713pSdJWn-14" value="" style="edgeStyle=orthogonalEdgeStyle;rounded=0;orthogonalLoop=1;jettySize=auto;html=1;" edge="1" parent="1" source="kTgBZfeZ7r7713pSdJWn-4" target="kTgBZfeZ7r7713pSdJWn-9">
          <mxGeometry relative="1" as="geometry" />
        </mxCell>
        <mxCell id="kTgBZfeZ7r7713pSdJWn-4" value="for el in list" style="shape=hexagon;perimeter=hexagonPerimeter2;whiteSpace=wrap;html=1;fixedSize=1;" vertex="1" parent="1">
          <mxGeometry x="320" y="300" width="120" height="80" as="geometry" />
        </mxCell>
        <mxCell id="kTgBZfeZ7r7713pSdJWn-12" value="" style="edgeStyle=orthogonalEdgeStyle;rounded=0;orthogonalLoop=1;jettySize=auto;html=1;" edge="1" parent="1" source="kTgBZfeZ7r7713pSdJWn-6" target="kTgBZfeZ7r7713pSdJWn-8">
          <mxGeometry relative="1" as="geometry" />
        </mxCell>
        <mxCell id="kTgBZfeZ7r7713pSdJWn-13" style="edgeStyle=orthogonalEdgeStyle;rounded=0;orthogonalLoop=1;jettySize=auto;html=1;entryX=0;entryY=0.5;entryDx=0;entryDy=0;" edge="1" parent="1" source="kTgBZfeZ7r7713pSdJWn-6" target="kTgBZfeZ7r7713pSdJWn-4">
          <mxGeometry relative="1" as="geometry">
            <Array as="points">
              <mxPoint x="300" y="460" />
              <mxPoint x="300" y="340" />
            </Array>
          </mxGeometry>
        </mxCell>
        <mxCell id="kTgBZfeZ7r7713pSdJWn-6" value="if el &amp;lt; minimum" style="rhombus;whiteSpace=wrap;html=1;" vertex="1" parent="1">
          <mxGeometry x="340" y="420" width="80" height="80" as="geometry" />
        </mxCell>
        <mxCell id="kTgBZfeZ7r7713pSdJWn-17" value="" style="edgeStyle=orthogonalEdgeStyle;rounded=0;orthogonalLoop=1;jettySize=auto;html=1;" edge="1" parent="1" source="kTgBZfeZ7r7713pSdJWn-7" target="kTgBZfeZ7r7713pSdJWn-4">
          <mxGeometry relative="1" as="geometry" />
        </mxCell>
        <mxCell id="kTgBZfeZ7r7713pSdJWn-7" value="minimum = lst[0]" style="rounded=0;whiteSpace=wrap;html=1;" vertex="1" parent="1">
          <mxGeometry x="320" y="200" width="120" height="60" as="geometry" />
        </mxCell>
        <mxCell id="kTgBZfeZ7r7713pSdJWn-18" style="edgeStyle=orthogonalEdgeStyle;rounded=0;orthogonalLoop=1;jettySize=auto;html=1;entryX=0;entryY=0.5;entryDx=0;entryDy=0;" edge="1" parent="1" source="kTgBZfeZ7r7713pSdJWn-8" target="kTgBZfeZ7r7713pSdJWn-4">
          <mxGeometry relative="1" as="geometry">
            <mxPoint x="190" y="350" as="targetPoint" />
            <Array as="points">
              <mxPoint x="520" y="520" />
              <mxPoint x="150" y="520" />
              <mxPoint x="150" y="350" />
              <mxPoint x="320" y="350" />
            </Array>
          </mxGeometry>
        </mxCell>
        <mxCell id="kTgBZfeZ7r7713pSdJWn-8" value="minimum = el" style="rounded=0;whiteSpace=wrap;html=1;" vertex="1" parent="1">
          <mxGeometry x="460" y="430" width="120" height="60" as="geometry" />
        </mxCell>
        <mxCell id="kTgBZfeZ7r7713pSdJWn-15" value="" style="edgeStyle=orthogonalEdgeStyle;rounded=0;orthogonalLoop=1;jettySize=auto;html=1;" edge="1" parent="1" source="kTgBZfeZ7r7713pSdJWn-9" target="kTgBZfeZ7r7713pSdJWn-10">
          <mxGeometry relative="1" as="geometry" />
        </mxCell>
        <mxCell id="kTgBZfeZ7r7713pSdJWn-9" value="minimum" style="shape=document;whiteSpace=wrap;html=1;boundedLbl=1;" vertex="1" parent="1">
          <mxGeometry x="470" y="300" width="120" height="80" as="geometry" />
        </mxCell>
        <mxCell id="kTgBZfeZ7r7713pSdJWn-10" value="end" style="rounded=1;whiteSpace=wrap;html=1;" vertex="1" parent="1">
          <mxGeometry x="640" y="310" width="120" height="60" as="geometry" />
        </mxCell>
      </root>
    </mxGraphModel>
  </diagram>
</mxfile>
